<?xml version="1.0" encoding="utf-8"?>
<!-- Generator: Adobe Illustrator 23.0.1, SVG Export Plug-In . SVG Version: 6.00 Build 0)  -->
<svg version="1.1" id="Layer_1" xmlns="http://www.w3.org/2000/svg" xmlns:xlink="http://www.w3.org/1999/xlink" x="0px" y="0px"
	 viewBox="0 0 81.4 80" style="enable-background:new 0 0 81.4 80;" xml:space="preserve">
<style type="text/css">
	.st0{fill:#8D1FB5;}
</style>
<path class="st0" d="M41.4,0c-22.1,0-40,17.9-40,40s17.9,40,40,40s40-17.9,40-40S63.5,0,41.4,0z M41.4,55.6L35.8,50l1.5-1.5l3,3v-12
	h2.1v12l3-3L47,50L41.4,55.6z M53.8,47.6h-4.3v-2.1h4.3c3.1,0,5.7-2.5,5.7-5.7c0-3.1-2.5-5.7-5.7-5.7c-0.1,0-0.2,0-0.4,0
	c-0.6,0.1-1.1-0.4-1.1-0.9c-0.4-3.8-3.6-6.7-7.5-6.7c-3.3,0-6.3,2.2-7.2,5.4c-0.1,0.3-0.3,0.5-0.5,0.6c-0.3,0.1-0.6,0.2-0.8,0.1
	c-0.6-0.2-1.2-0.3-1.9-0.3c-2.9,0-5.4,2.2-5.7,5.1c0,0.3-0.2,0.6-0.4,0.7c-0.2,0.2-0.5,0.3-0.8,0.2c-0.2,0-0.4-0.1-0.6-0.1
	c-2,0-3.6,1.6-3.6,3.6c0,2,1.6,3.6,3.6,3.6h6.2v2.1H27c-3.2,0-5.7-2.6-5.7-5.7c0-3.1,2.5-5.7,5.7-5.8c0.8-3.5,3.9-6,7.6-6
	c0.5,0,1,0.1,1.5,0.2c1.5-3.5,5-5.9,8.9-5.9c4.6,0,8.5,3.2,9.4,7.6c4.1,0.2,7.3,3.6,7.3,7.8C61.6,44.1,58.1,47.6,53.8,47.6z"/>
</svg>
